<?xml version="1.0" encoding="UTF-8" standalone="no"?>
<svg
   xmlns:dc="http://purl.org/dc/elements/1.1/"
   xmlns:cc="http://creativecommons.org/ns#"
   xmlns:rdf="http://www.w3.org/1999/02/22-rdf-syntax-ns#"
   xmlns:svg="http://www.w3.org/2000/svg"
   xmlns="http://www.w3.org/2000/svg"
   xmlns:sodipodi="http://sodipodi.sourceforge.net/DTD/sodipodi-0.dtd"
   xmlns:inkscape="http://www.inkscape.org/namespaces/inkscape"
   width="566.92px"
   height="566.92px"
   version="1.1"
   id="svg226"
   sodipodi:docname="logo.svg"
   inkscape:export-filename="/home/yuzhai/Documents/unitsconvert/favicon_96.png"
   inkscape:export-xdpi="16.26"
   inkscape:export-ydpi="16.26"
   inkscape:version="0.92.3 (unknown)">
  <metadata
     id="metadata230">
    <rdf:RDF>
      <cc:Work
         rdf:about="">
        <dc:format>image/svg+xml</dc:format>
        <dc:type
           rdf:resource="http://purl.org/dc/dcmitype/StillImage" />
        <dc:title></dc:title>
      </cc:Work>
    </rdf:RDF>
  </metadata>
  <sodipodi:namedview
     pagecolor="#ffffff"
     bordercolor="#666666"
     borderopacity="1"
     objecttolerance="10"
     gridtolerance="10"
     guidetolerance="10"
     inkscape:pageopacity="0"
     inkscape:pageshadow="2"
     inkscape:window-width="1366"
     inkscape:window-height="713"
     id="namedview228"
     showgrid="false"
     inkscape:zoom="0.92076486"
     inkscape:cx="184.16805"
     inkscape:cy="281.18058"
     inkscape:window-x="0"
     inkscape:window-y="0"
     inkscape:window-maximized="1"
     inkscape:current-layer="svg226" />
  <desc
     id="desc140">Veusz output document</desc>
  <defs
     id="defs148">
    <clipPath
       id="c0">
      <path
         d="m0,0l566.92,0l0,566.92l-566.92,0l0,-566.92"
         id="path142" />
    </clipPath>
    <clipPath
       id="c1">
      <path
         d="m64.25,7.55l495.11,0l0,495.11l-495.11,0l0,-495.11"
         id="path145" />
    </clipPath>
  </defs>
  <path
     style="fill:none;fill-rule:evenodd;stroke:#ffaaaa;stroke-width:43.86;stroke-linecap:round;stroke-linejoin:bevel;stroke-miterlimit:4;stroke-dasharray:none;paint-order:markers fill stroke"
     inkscape:connector-curvature="0"
     id="path156"
     d="m 61.304235,283.46999 c 8.69,-30.43 17.36,-60.87 26.66,-91.13 8.1,-26.35 16.590005,-52.65 26.660005,-78.33 4.08,-10.41 8.43,-20.739999 13.33,-30.809999 3.96,-8.15 8.27,-16.18 13.33,-23.71 3.83,-5.7 8.12,-11.25 13.33,-15.78 4.95,-4.3 11.03,-7.77 17.77,-7.77 8.9,0 16.46,5.89 22.22,12.11 5.16,5.58 9.45,11.97 13.33,18.5 3.18,5.36 6.16,11.05 8.88,16.65 6.71,13.8 12.43,28.089999 17.77,42.469999 6.41,17.29 12.22,34.8 17.77,52.39 6.19,19.59 12.03,39.29 17.77,59.01 11.91,40.94 23.27,82.04 35.55,122.88 6.95,23.14 14.16,46.22 22.22,69.01 6.56,18.56 13.6,37.04 22.22,54.76 2.72,5.6 5.7,11.29 8.88,16.65 3.87,6.52 8.16,12.91 13.33,18.5 5.75,6.22 13.31,12.11 22.22,12.11 8.9,0 16.46,-5.89 22.22,-12.11 7.14,-7.72 12.84,-17.17 17.77,-26.42 3.16,-5.92 6.14,-12.14 8.88,-18.27 4.84,-10.81 9.21,-21.84 13.33,-32.94 6.41,-17.29 12.22,-34.8 17.77,-52.39 11.03,-34.93 21.03,-70.18 31.1,-105.4" />
  <text
     xml:space="preserve"
     style="font-style:normal;font-weight:normal;font-size:143.576828px;line-height:1.25;font-family:sans-serif;letter-spacing:0px;word-spacing:0px;fill:#800000;fill-opacity:1;stroke:none;stroke-width:3.58942056;"
     x="38.25457"
     y="199.20949"
     id="text1079"
     transform="scale(0.83831059,1.1928753)"><tspan
       sodipodi:role="line"
       id="tspan1077"
       x="38.25457"
       y="199.20949"
       style="font-style:italic;font-variant:normal;font-weight:normal;font-stretch:normal;line-height:0;font-family:'Cousine for Powerline';-inkscape-font-specification:'Cousine for Powerline Italic';stroke-width:3.58942056;fill:#800000;">units</tspan><tspan
       sodipodi:role="line"
       x="38.25457"
       y="378.68054"
       style="font-style:italic;font-variant:normal;font-weight:normal;font-stretch:normal;line-height:0;font-family:'Cousine for Powerline';-inkscape-font-specification:'Cousine for Powerline Italic';stroke-width:3.58942056;fill:#800000;"
       id="tspan1081">convert</tspan></text>
</svg>
